<svg xmlns="http://www.w3.org/2000/svg" viewBox="-1201.762 -140.759 45.365 45.362">
  <defs>
    <style>
      .cls-1 {
        fill: #525252;
      }
    </style>
  </defs>
  <path id="Ajouter_Liste_1" data-name="Ajouter_Liste+1" class="cls-1" d="M-1405.217,45.362a14.55,14.55,0,0,1-9.758-3.747,14.551,14.551,0,0,1-4.734-9.214h-14.671a1.622,1.622,0,0,1-1.621-1.62,1.622,1.622,0,0,1,1.621-1.62h14.671a14.58,14.58,0,0,1,2.367-6.48h-17.038a1.622,1.622,0,0,1-1.621-1.62,1.622,1.622,0,0,1,1.621-1.62h20a14.519,14.519,0,0,1,4.219-2.38,14.54,14.54,0,0,1,4.946-.86,14.488,14.488,0,0,1,10.311,4.27,14.484,14.484,0,0,1,4.271,10.31,14.485,14.485,0,0,1-4.271,10.31A14.487,14.487,0,0,1-1405.217,45.362Zm-6.478-16.2a1.622,1.622,0,0,0-1.621,1.62,1.622,1.622,0,0,0,1.621,1.62h4.86v4.86a1.623,1.623,0,0,0,1.621,1.621,1.622,1.622,0,0,0,1.62-1.621V32.4h4.86a1.622,1.622,0,0,0,1.621-1.62,1.622,1.622,0,0,0-1.621-1.62h-4.86V24.3a1.622,1.622,0,0,0-1.62-1.62,1.622,1.622,0,0,0-1.621,1.62v4.86Zm12.959-16.2h-35.644A1.622,1.622,0,0,1-1436,11.34a1.622,1.622,0,0,1,1.621-1.62h35.644a1.622,1.622,0,0,1,1.62,1.62A1.622,1.622,0,0,1-1398.736,12.96Zm0-9.72h-35.644A1.622,1.622,0,0,1-1436,1.62,1.622,1.622,0,0,1-1434.38,0h35.644a1.622,1.622,0,0,1,1.62,1.62A1.622,1.622,0,0,1-1398.736,3.24Z" transform="translate(234.239 -140.759)"/>
</svg>
