<?xml version="1.0" encoding="UTF-8"?>
<svg width="16px" height="16px" viewBox="0 0 16 16" version="1.1" xmlns="http://www.w3.org/2000/svg" xmlns:xlink="http://www.w3.org/1999/xlink">
    <!-- Generator: Sketch 51 (57462) - http://www.bohemiancoding.com/sketch -->
    <title>Icons/Set/Calendar</title>
    <desc>Created with Sketch.</desc>
    <defs>
        <path d="M12.744,12.028 C12.744,12.448 12.464,12.756 12.014,12.756 C11.8202505,12.7576087 11.6339404,12.6814903 11.4967462,12.544672 C11.3595521,12.4078538 11.2829228,12.2217532 11.284,12.028 C11.284,11.636 11.593,11.3 12.014,11.3 C12.464,11.3 12.744,11.608 12.744,12.028 Z M12.744,8.024 C12.744,8.444 12.464,8.752 12.014,8.752 C11.8202505,8.75360871 11.6339404,8.67749032 11.4967462,8.54067204 C11.3595521,8.40385376 11.2829228,8.21775323 11.284,8.024 C11.284,7.632 11.593,7.296 12.014,7.296 C12.464,7.296 12.744,7.604 12.744,8.024 Z M8.73,12.028 C8.73,12.448 8.45,12.756 8,12.756 C7.80625045,12.7576087 7.61994039,12.6814903 7.48274624,12.544672 C7.34555209,12.4078538 7.26892285,12.2217532 7.27,12.028 C7.27,11.636 7.579,11.3 8,11.3 C8.45,11.3 8.73,11.608 8.73,12.028 Z M8.73,8.024 C8.73,8.444 8.45,8.752 8,8.752 C7.80625045,8.75360871 7.61994039,8.67749032 7.48274624,8.54067204 C7.34555209,8.40385376 7.26892285,8.21775323 7.27,8.024 C7.27,7.632 7.579,7.296 8,7.296 C8.45,7.296 8.73,7.604 8.73,8.024 Z M4.716,12.028 C4.716,12.448 4.436,12.756 3.986,12.756 C3.79225045,12.7576087 3.60594039,12.6814903 3.46874624,12.544672 C3.33155209,12.4078538 3.25492285,12.2217532 3.256,12.028 C3.256,11.636 3.565,11.3 3.986,11.3 C4.436,11.3 4.716,11.608 4.716,12.028 Z M4.716,8.024 C4.716,8.444 4.436,8.752 3.986,8.752 C3.79225045,8.75360871 3.60594039,8.67749032 3.46874624,8.54067204 C3.33155209,8.40385376 3.25492285,8.21775323 3.256,8.024 C3.256,7.632 3.565,7.296 3.986,7.296 C4.436,7.296 4.716,7.604 4.716,8.024 Z M15,14.0775623 L15,5 L1,5 L1,14.0775623 C1,14.7257618 1.28031922,15 2.00855066,15 L13.9934445,15 C14.7206784,15 15,14.7257618 15,14.0775623 Z M15.018,3.992 L15.018,3.032 C15.018,2.304 14.737,1.996 14.007,1.996 L1.993,1.996 C1.263,1.996 0.983,2.304 0.983,3.032 L1,4 L15.018,3.992 Z M1.993,16.004 C0.646,16.004 0,15.36 0,14.016 L0,3.032 C0,1.688 0.646,1.044 1.993,1.044 L3.003,1.044 L3.003,0 L3.986,0 L3.986,1.044 L12.042,1.044 L12.042,0 L13.025,0 L13.025,1.044 L14.007,1.044 C15.354,1.044 16,1.688 16,3.032 L16,14.016 C16,15.36 15.354,16.004 14.007,16.004 L1.993,16.004 Z" id="path-1"></path>
    </defs>
    <g id="Icons/Set/Calendar" stroke="none" stroke-width="1" fill="none" fill-rule="evenodd">
        <mask id="mask-2" fill="white">
            <use xlink:href="#path-1"></use>
        </mask>
        <use id="Mask" fill="#0076CC" fill-rule="nonzero" xlink:href="#path-1"></use>
    </g>
</svg>