<svg xmlns="http://www.w3.org/2000/svg" viewBox="-1366 504.811 72.784 46.729">
  <g id="Visualiser1" transform="translate(-1391 -212.889)">
    <path id="visualiser" d="M94.234,264.233a42.75,42.75,0,0,0-15.293-14.868A40.138,40.138,0,0,0,58.692,243.7a38.774,38.774,0,0,0-20.249,5.664A42.75,42.75,0,0,0,23.15,264.233a5.464,5.464,0,0,0-.85,2.832,5.869,5.869,0,0,0,.85,2.832,42.751,42.751,0,0,0,15.293,14.868,40.139,40.139,0,0,0,20.249,5.664,38.775,38.775,0,0,0,20.249-5.664A42.751,42.751,0,0,0,94.234,269.9a5.464,5.464,0,0,0,.85-2.832A5.106,5.106,0,0,0,94.234,264.233ZM50.2,253.046a11.778,11.778,0,0,1,8.638-3.682,1.983,1.983,0,1,1,0,3.965,8.6,8.6,0,0,0-5.947,2.407,8.01,8.01,0,0,0-2.407,5.947,1.983,1.983,0,1,1-3.965,0A12.012,12.012,0,0,1,50.2,253.046Zm26.2,27.188a33.6,33.6,0,0,1-17.559,4.956,33.238,33.238,0,0,1-17.559-4.956,41.181,41.181,0,0,1-13.452-13.169,39.208,39.208,0,0,1,15.435-14.3,17.063,17.063,0,0,0-2.407,9.063,18.378,18.378,0,0,0,18.125,18.125A18.378,18.378,0,0,0,77.1,261.825a18.456,18.456,0,0,0-2.407-9.063,39.208,39.208,0,0,1,15.435,14.3A48.572,48.572,0,0,1,76.392,280.234Z" transform="translate(2.7 474)"/>
  </g>
</svg>
