<svg id="Calque_1" data-name="Calque 1" xmlns="http://www.w3.org/2000/svg" viewBox="0 0 18.51 20.63"><defs><style>.cls-1{fill:#525252;}.cls-2{fill:#fff;}</style></defs><title>Plan de travail 1</title><circle class="cls-1" cx="9.32" cy="10.09" r="6.05"/><g id="Calque_1-2" data-name="Calque 1-2"><path class="cls-1" d="M10.56,3.8a.15.15,0,0,0,.14.12h.06l2.41-1.69a.12.12,0,0,0,0-.14h0L10.76.36a.12.12,0,0,0-.17,0h0a.11.11,0,0,0,0,.11v.9A10.3,10.3,0,0,0,.29,11.65H1.84A8.69,8.69,0,0,1,10.55,3h0Z"/><path class="cls-1" d="M16.7,9.05A8.74,8.74,0,0,1,8,17.79H8v-.9a.1.1,0,0,0-.1-.11h0l-2.5,1.68a.12.12,0,0,0,0,.16h0l2.4,1.66a.11.11,0,0,0,.16,0h0a.09.09,0,0,0,0-.07v-.9A10.31,10.31,0,0,0,18.2,9Z"/></g><path class="cls-2" d="M13.2,7.27l-.94.93a.5.5,0,0,1-.7,0l-.35-.35a.5.5,0,0,1,0-.71l.93-.93a1.73,1.73,0,0,0-1.81.41,1.75,1.75,0,0,0-.41,1.81L7.65,10.7a1.73,1.73,0,0,0-2.21,2.22L6.37,12a.5.5,0,0,1,.7,0l.35.35a.5.5,0,0,1,0,.71L6.49,14a1.73,1.73,0,0,0,2.22-2.22L11,9.48a1.73,1.73,0,0,0,1.81-.4A1.75,1.75,0,0,0,13.2,7.27Z"/></svg>