<svg xmlns="http://www.w3.org/2000/svg" viewBox="-1265 -225 35.357 35.345">
  <path id="edit" d="M17.03,16.519a.688.688,0,0,0,.5-.206l1-1a.706.706,0,0,0-1-1l-1,1a.728.728,0,0,0,0,1A.688.688,0,0,0,17.03,16.519ZM34.677,34.342H3.788l7.106-2.466a.528.528,0,0,0,.264-.176L34.677,8.18a2.18,2.18,0,0,0,0-3.083L30.243.664a2.18,2.18,0,0,0-3.083,0L3.641,24.183a.693.693,0,0,0-.176.264L0,34.43a.64.64,0,0,0,.117.646.523.523,0,0,0,.47.294H34.677a.526.526,0,0,0,.529-.529A.542.542,0,0,0,34.677,34.342ZM28.159,1.662a.817.817,0,0,1,1.116,0L33.708,6.1a.817.817,0,0,1,0,1.116L31.242,9.678,25.692,4.128ZM24.694,5.1l2.76,2.76,2.76,2.76-19.5,19.5L7.224,26.649l8.662-8.662a.706.706,0,1,0-1-1L6.225,25.651,5.2,24.623ZM4.463,25.856c1.571.323,4.992,4.992,4.992,4.992l-3.7,1.292L3.172,29.556S2.893,25.533,4.463,25.856Zm-1.791,5.2,1.615,1.615-2.466.851Z" transform="translate(-1264.959 -225.025)"/>
</svg>
