<svg xmlns="http://www.w3.org/2000/svg" viewBox="0 0 85.25 60.71"><title>Fichier 1</title><g id="Calque_2" data-name="Calque 2"><g id="Calque_1-2" data-name="Calque 1"><path d="M80.09,0H43.34a5.17,5.17,0,0,0-5.16,5.16v18H5.77A5.78,5.78,0,0,0,0,28.94v26a5.78,5.78,0,0,0,5.77,5.78H79.48a5.78,5.78,0,0,0,5.77-5.78V5.16A5.17,5.17,0,0,0,80.09,0Zm2.5,54.93A3.11,3.11,0,0,1,79.48,58H5.77a3.11,3.11,0,0,1-3.11-3.11v-26a3.12,3.12,0,0,1,3.11-3.11H40.84V5.16a2.5,2.5,0,0,1,2.5-2.5H80.09a2.5,2.5,0,0,1,2.5,2.5Z"/><path d="M60.46,22.42a2.21,2.21,0,0,0-2.22,2.22V37.91A2.22,2.22,0,0,1,56,40.13H38.21V34.21L22.57,42.35l15.64,8.14V44.57H56a6.66,6.66,0,0,0,6.66-6.66V24.64A2.21,2.21,0,0,0,60.46,22.42Z"/></g></g></svg>