<svg version="1.1" id="Calque_1" xmlns="http://www.w3.org/2000/svg" xmlns:xlink="http://www.w3.org/1999/xlink" x="0px" y="0px"
	 viewBox="0 0 139 41.6" style="enable-background:new 0 0 139 41.6;" xml:space="preserve">
<style type="text/css">
	.st0{fill:#2B4768;}
	.st1{fill:url(#SVGID_1_);}
	.st2{fill:url(#SVGID_2_);}
</style>
<path id="SUPPLIER-CHArgeback-Copy" class="st0" d="M60.2,16.2c0,1-0.3,1.7-0.9,2.2s-1.5,0.7-2.8,0.7c-0.4,0-0.8,0-1.2-0.1
	s-0.9-0.1-1.4-0.3V17c0.4,0.1,0.8,0.2,1.3,0.3c0.4,0.1,0.9,0.1,1.3,0.1c0.6,0,1-0.1,1.3-0.2c0.3-0.2,0.4-0.4,0.4-0.7
	c0-0.3-0.1-0.5-0.3-0.7c-0.2-0.2-0.6-0.4-1.3-0.7c-0.6-0.2-1-0.4-1.2-0.6c-0.3-0.1-0.5-0.3-0.7-0.5c-0.3-0.3-0.5-0.6-0.6-0.9
	s-0.2-0.7-0.2-1.1c0-1,0.3-1.8,0.9-2.3c0.6-0.5,1.5-0.7,2.8-0.7c0.4,0,0.8,0,1.2,0.1c0.4,0,0.8,0.1,1.2,0.2v1.9
	c-0.3-0.1-0.7-0.2-1.2-0.3c-0.4-0.1-0.8-0.1-1.2-0.1c-0.6,0-1,0.1-1.2,0.2c-0.3,0.2-0.4,0.4-0.4,0.7c0,0.3,0.1,0.5,0.3,0.7
	c0.2,0.2,0.7,0.4,1.4,0.7c0.6,0.2,1,0.4,1.2,0.6c0.3,0.2,0.5,0.3,0.7,0.5c0.3,0.3,0.5,0.5,0.6,0.9S60.2,15.8,60.2,16.2z M65.4,19.2
	c-1.2,0-2.1-0.3-2.8-0.9c-0.7-0.6-1-1.5-1-2.6V9.2h2.1v6.2c0,0.7,0.1,1.1,0.4,1.5c0.3,0.3,0.7,0.5,1.3,0.5c0.6,0,1-0.2,1.3-0.5
	c0.3-0.3,0.4-0.8,0.4-1.5V9.2h2.1v6.4c0,1.1-0.3,2-1,2.6C67.5,18.9,66.6,19.2,65.4,19.2z M73.3,19h-2.1V9.2h3.6
	c1.1,0,1.9,0.3,2.5,0.9c0.6,0.6,0.9,1.4,0.9,2.4S78,14.4,77.4,15c-0.6,0.6-1.5,0.9-2.5,0.9h-1.5V19z M76.2,12.5
	c0-0.5-0.1-0.9-0.4-1.2c-0.2-0.3-0.6-0.4-1.1-0.4h-1.4v3.1h1.4c0.5,0,0.8-0.1,1.1-0.4C76,13.4,76.2,13,76.2,12.5z M81.8,19h-2.1V9.2
	h3.6c1.1,0,1.9,0.3,2.5,0.9c0.6,0.6,0.9,1.4,0.9,2.4s-0.3,1.9-0.9,2.4c-0.6,0.6-1.5,0.9-2.5,0.9h-1.5V19z M84.7,12.5
	c0-0.5-0.1-0.9-0.4-1.2c-0.2-0.3-0.6-0.4-1.1-0.4h-1.4v3.1h1.4c0.5,0,0.8-0.1,1.1-0.4C84.6,13.4,84.7,13,84.7,12.5z M90.3,17.3h3.9
	V19h-6.1V9.2h2.1V17.3z M97.6,9.2V19h-2.1V9.2H97.6z M105.8,19h-6.1V9.2h6.1V11h-3.9v2.1h3.5v1.8h-3.5v2.4h3.9V19z M109.7,19h-2.1
	V9.2h3.7c1,0,1.9,0.3,2.5,0.8s0.9,1.3,0.9,2.2c0,0.6-0.2,1.2-0.5,1.7c-0.3,0.5-0.7,0.8-1.3,1.1c0.3,0.5,0.7,1.1,1.1,1.7
	c0.4,0.6,0.8,1.4,1.2,2.3h-2.4c-0.3-0.7-0.6-1.3-1-1.9c-0.3-0.6-0.6-1.1-1-1.7h-1.2V19z M112.5,12.3c0-0.4-0.1-0.7-0.4-1
	s-0.6-0.4-1-0.4h-1.4v2.7h1.5c0.4,0,0.8-0.1,1-0.4S112.5,12.8,112.5,12.3z M58.2,33.2c-1.6,0-2.7-0.4-3.4-1.2s-1.1-2.1-1.1-3.9
	c0-1.7,0.3-3,1-3.8s1.8-1.2,3.3-1.2c0.4,0,0.8,0,1.1,0.1c0.4,0.1,0.7,0.1,1,0.2v1.8c-0.3-0.1-0.7-0.2-1-0.2c-0.3-0.1-0.6-0.1-1-0.1
	c-0.9,0-1.5,0.2-1.9,0.7c-0.3,0.5-0.5,1.3-0.5,2.5c0,1.2,0.2,2,0.5,2.5c0.4,0.5,1,0.7,1.9,0.7c0.3,0,0.6,0,1-0.1
	c0.3-0.1,0.7-0.1,1-0.2v1.9c-0.3,0.1-0.6,0.1-0.9,0.2C59,33.1,58.6,33.2,58.2,33.2z M69.5,33h-2.1v-4h-3.6v4h-2.1v-9.8h2.1v3.9h3.6
	v-3.9h2.1V33z M79.2,33H77c-0.1-0.3-0.1-0.7-0.2-1c-0.1-0.3-0.1-0.7-0.2-1h-3.4c-0.1,0.3-0.1,0.7-0.2,1c-0.1,0.3-0.1,0.7-0.2,1h-2.1
	c0.3-1.5,0.7-3,1.2-4.7c0.5-1.6,1.1-3.3,1.7-5.1h2.5c0.6,1.7,1.2,3.4,1.7,5.1S78.8,31.5,79.2,33z M74.9,24.9
	c-0.2,0.7-0.4,1.4-0.7,2.1c-0.2,0.7-0.4,1.5-0.6,2.2h2.5c-0.2-0.7-0.4-1.4-0.6-2.1C75.4,26.4,75.2,25.7,74.9,24.9z M82.5,33h-2.1
	v-9.8h3.7c1,0,1.9,0.3,2.5,0.8c0.6,0.5,0.9,1.3,0.9,2.2c0,0.6-0.2,1.2-0.5,1.7c-0.3,0.5-0.7,0.8-1.3,1.1c0.3,0.5,0.7,1.1,1.1,1.7
	c0.4,0.6,0.8,1.4,1.2,2.3h-2.4c-0.3-0.7-0.6-1.3-1-1.9c-0.3-0.6-0.6-1.1-1-1.7h-1.2V33z M85.4,26.3c0-0.4-0.1-0.7-0.4-1
	c-0.3-0.2-0.6-0.4-1-0.4h-1.4v2.7H84c0.4,0,0.8-0.1,1-0.4C85.3,27.1,85.4,26.8,85.4,26.3z M93,29.3v-1.7h3.4v5.2
	c-0.4,0.1-0.9,0.2-1.4,0.3c-0.5,0.1-1,0.1-1.5,0.1c-1.6,0-2.8-0.4-3.6-1.2c-0.8-0.8-1.1-2.1-1.1-3.8s0.4-3,1.1-3.8s1.9-1.2,3.5-1.2
	c0.5,0,0.9,0,1.4,0.1c0.5,0.1,0.8,0.1,1.2,0.2v1.8c-0.4-0.1-0.8-0.2-1.1-0.3c-0.4-0.1-0.8-0.1-1.2-0.1c-1,0-1.7,0.2-2.1,0.7
	c-0.4,0.5-0.5,1.3-0.5,2.5c0,1.2,0.2,2.1,0.6,2.5c0.4,0.5,1.1,0.7,2.2,0.7c0.1,0,0.2,0,0.4,0l0.4,0v-2H93z M104.3,33h-6.1v-9.8h6.1
	V25h-3.9v2.1h3.5v1.8h-3.5v2.4h3.9V33z M110.1,33H106v-9.8h3.8c1,0,1.8,0.2,2.4,0.7c0.6,0.4,0.8,1.1,0.8,1.9c0,0.5-0.1,0.9-0.4,1.3
	s-0.6,0.6-1.1,0.8c0.6,0.2,1.1,0.5,1.4,0.8c0.3,0.4,0.5,0.8,0.5,1.4c0,0.9-0.3,1.7-0.9,2.2S111.2,33,110.1,33z M110.9,26
	c0-0.4-0.1-0.7-0.3-0.8c-0.2-0.2-0.5-0.3-0.9-0.3h-1.6v2.2h1.6c0.4,0,0.7-0.1,0.9-0.2C110.8,26.7,110.9,26.4,110.9,26z M111.3,30.1
	c0-0.5-0.1-0.8-0.3-1c-0.2-0.2-0.5-0.3-1-0.3h-1.8v2.4h1.8c0.5,0,0.8-0.1,1-0.3C111.2,30.8,111.3,30.5,111.3,30.1z M122.4,33h-2.2
	c-0.1-0.3-0.1-0.7-0.2-1c-0.1-0.3-0.1-0.7-0.2-1h-3.4c-0.1,0.3-0.1,0.7-0.2,1c-0.1,0.3-0.1,0.7-0.2,1h-2.1c0.3-1.5,0.7-3,1.2-4.7
	c0.5-1.6,1.1-3.3,1.7-5.1h2.5c0.6,1.7,1.2,3.4,1.7,5.1S122,31.5,122.4,33z M118.1,24.9c-0.2,0.7-0.4,1.4-0.7,2.1
	c-0.2,0.7-0.4,1.5-0.6,2.2h2.5c-0.2-0.7-0.4-1.4-0.6-2.1C118.6,26.4,118.3,25.7,118.1,24.9z M127.3,33.2c-1.6,0-2.7-0.4-3.4-1.2
	s-1.1-2.1-1.1-3.9c0-1.7,0.3-3,1-3.8c0.7-0.8,1.8-1.2,3.3-1.2c0.4,0,0.8,0,1.1,0.1c0.4,0.1,0.7,0.1,1,0.2v1.8
	c-0.3-0.1-0.7-0.2-1-0.2c-0.3-0.1-0.6-0.1-1-0.1c-0.9,0-1.5,0.2-1.9,0.7c-0.3,0.5-0.5,1.3-0.5,2.5c0,1.2,0.2,2,0.5,2.5
	c0.4,0.5,1,0.7,1.9,0.7c0.3,0,0.6,0,1-0.1c0.3-0.1,0.7-0.1,1-0.2v1.9c-0.3,0.1-0.6,0.1-0.9,0.2C128.1,33.1,127.7,33.2,127.3,33.2z
	 M138.9,33h-2.4c-0.5-0.9-0.9-1.6-1.3-2.3c-0.4-0.7-0.8-1.3-1.2-1.9l-1,1.3v3h-2.1v-9.8h2.1v4.3l3.3-4.3h2.3l-3,4
	c0.6,0.8,1.1,1.7,1.7,2.7C137.7,30.8,138.3,31.9,138.9,33z"/>
<g>
	<linearGradient id="SVGID_1_" gradientUnits="userSpaceOnUse" x1="21.5" y1="25.8472" x2="21.5" y2="7.116">
		<stop  offset="0" style="stop-color:#FFA133"/>
		<stop  offset="1" style="stop-color:#FFCC33"/>
	</linearGradient>
	<path class="st1" d="M21.5,6c-2.7,0-5.2,0.7-7.4,1.9l-1.4,4L11.2,10C8,12.8,6,16.9,6,21.5c0,6.9,4.6,12.8,10.8,14.8
		c1.5-4,1.5-8.5-0.2-13.3c5.1-0.9,10,2.5,14.9,10.3c3.3-2.8,5.5-7.1,5.5-11.8C37,13,30,6,21.5,6z"/>
	<linearGradient id="SVGID_2_" gradientUnits="userSpaceOnUse" x1="21.5" y1="27.2424" x2="21.5" y2="1.5318">
		<stop  offset="0" style="stop-color:#FFA133"/>
		<stop  offset="1" style="stop-color:#FFCC33"/>
	</linearGradient>
	<path class="st2" d="M21.5,0C9.6,0,0,9.6,0,21.5c0,9.2,5.7,17,13.8,20.1c0.9-1.1,1.6-2.3,2.2-3.5C9,35.8,4,29.2,4,21.5
		c0-5.2,2.3-9.8,5.8-13L8.2,6.6l6.8-1.3C17,4.5,19.2,4,21.5,4C31.1,4,39,11.9,39,21.5c0,5.5-2.5,10.3-6.4,13.6
		c0.6,1.1,1.3,2.3,1.9,3.6c5.2-3.9,8.5-10.1,8.5-17.1C43,9.6,33.4,0,21.5,0z"/>
</g>
</svg>
