<svg id="" data-name="" xmlns="http://www.w3.org/2000/svg" viewBox="0 0 246.8 74.58"><defs><style>.cls-1{fill:#a8b5c5;}</style></defs><title>logo-monochrome-grey</title><g id="SHARCK---Disconnect"><g id="SHARCK---list-of-users"><g id="Logos_monochrome-blue" data-name="Logos/monochrome-blue"><g id="Logos_A" data-name="Logos/A"><path id="SUPPLIER-CHArgeback-Copy" class="cls-1" d="M107,29a4.77,4.77,0,0,1-1.6,4,7.74,7.74,0,0,1-4.92,1.29,16.39,16.39,0,0,1-2.17-.15q-1.11-.15-2.46-.45V30.28a13.47,13.47,0,0,0,2.25.57,12.86,12.86,0,0,0,2.25.2,4.89,4.89,0,0,0,2.27-.41,1.31,1.31,0,0,0,.77-1.21,1.57,1.57,0,0,0-.54-1.18A8.72,8.72,0,0,0,100.45,27a18.77,18.77,0,0,1-2.2-1A5.45,5.45,0,0,1,97,25.13a4.5,4.5,0,0,1-1.11-1.59,5.3,5.3,0,0,1-.36-2,4.92,4.92,0,0,1,1.61-4,7.74,7.74,0,0,1,4.94-1.31,20.5,20.5,0,0,1,2.07.11c.69.08,1.38.18,2.06.31V20a11.6,11.6,0,0,0-2.06-.46,14.56,14.56,0,0,0-2.1-.17,4.46,4.46,0,0,0-2.19.42A1.32,1.32,0,0,0,99.18,21a1.65,1.65,0,0,0,.55,1.25,8.08,8.08,0,0,0,2.41,1.25,17.68,17.68,0,0,1,2.21,1,6,6,0,0,1,1.22.88A4.26,4.26,0,0,1,106.62,27,5.5,5.5,0,0,1,107,29Zm9.16,5.25a7,7,0,0,1-5-1.65,6.22,6.22,0,0,1-1.75-4.73V16.48h3.73V27.53a4,4,0,0,0,.7,2.6,3.64,3.64,0,0,0,4.6,0,4,4,0,0,0,.7-2.6v-11h3.73V27.85a6.18,6.18,0,0,1-1.75,4.73A7,7,0,0,1,116.13,34.23Zm14.12-.3h-3.76V16.48H133A6.3,6.3,0,0,1,137.49,18a5.72,5.72,0,0,1,1.62,4.36,5.7,5.7,0,0,1-1.62,4.35A6.33,6.33,0,0,1,133,28.25h-2.71Zm5.1-11.55a3,3,0,0,0-.65-2.09,2.44,2.44,0,0,0-1.89-.71h-2.56v5.57h2.56a2.41,2.41,0,0,0,1.9-.7A2.93,2.93,0,0,0,135.35,22.38Zm10,11.55h-3.76V16.48h6.47A6.26,6.26,0,0,1,152.62,18a5.72,5.72,0,0,1,1.62,4.36,5.7,5.7,0,0,1-1.62,4.35,6.29,6.29,0,0,1-4.52,1.52h-2.71Zm5.1-11.55a3,3,0,0,0-.65-2.09,2.44,2.44,0,0,0-1.89-.71h-2.56v5.57H148a2.43,2.43,0,0,0,1.9-.7A3,3,0,0,0,150.49,22.38Zm10,8.45h7v3.1H156.77V16.48h3.75Zm12.95-14.35V33.93h-3.76V16.48Zm14.59,17.45H177.29V16.48h10.77v3.1h-7V23.4h6.27v3.2H181v4.23h7Zm6.8,0H191.1V16.48h6.62a6.31,6.31,0,0,1,4.37,1.44,5,5,0,0,1,1.6,4,5.42,5.42,0,0,1-.81,3,4.9,4.9,0,0,1-2.3,1.89c.62.92,1.24,1.93,1.87,3s1.36,2.48,2.19,4.1h-4.23c-.57-1.2-1.13-2.33-1.69-3.38s-1.13-2-1.7-3h-2.16ZM200,22a2.3,2.3,0,0,0-.68-1.76,2.61,2.61,0,0,0-1.86-.64h-2.56v4.9h2.59a2.55,2.55,0,0,0,1.84-.65A2.44,2.44,0,0,0,200,22Zm-96.5,37.25q-4.15,0-6-2.18t-1.89-6.9c0-3.1.62-5.37,1.84-6.81s3.19-2.16,5.88-2.16a13.8,13.8,0,0,1,2,.14,10.3,10.3,0,0,1,1.74.38V45a13.59,13.59,0,0,0-1.74-.41,11,11,0,0,0-1.72-.14c-1.63,0-2.73.42-3.32,1.27a8.09,8.09,0,0,0-.89,4.43,7.88,7.88,0,0,0,1,4.48,3.81,3.81,0,0,0,3.3,1.32,11.19,11.19,0,0,0,1.7-.13,13.31,13.31,0,0,0,1.71-.39v3.32a9.89,9.89,0,0,1-1.63.35A13.21,13.21,0,0,1,103.46,59.23Zm20-.3h-3.75V51.78h-6.37v7.15h-3.76V41.48h3.76v7h6.37v-7h3.75Zm17.25,0h-3.83c-.11-.62-.24-1.22-.36-1.81s-.25-1.18-.39-1.77h-6l-.39,1.77c-.12.59-.24,1.19-.36,1.81h-3.68c.58-2.65,1.32-5.43,2.2-8.34s1.91-5.94,3.08-9.11h4.52q1.69,4.65,3,9C139.36,53.44,140.11,56.25,140.72,58.93Zm-7.61-14.5c-.4,1.25-.78,2.53-1.16,3.84s-.73,2.63-1.08,4h4.5c-.31-1.23-.66-2.5-1-3.8S133.56,45.81,133.11,44.43Zm13.57,14.5h-3.76V41.48h6.62a6.31,6.31,0,0,1,4.37,1.44,5,5,0,0,1,1.6,4,5.42,5.42,0,0,1-.81,3,4.9,4.9,0,0,1-2.3,1.89c.61.92,1.24,1.93,1.87,3s1.36,2.48,2.19,4.1h-4.23c-.57-1.2-1.13-2.33-1.7-3.38s-1.12-2-1.69-3h-2.16Zm5.1-12a2.27,2.27,0,0,0-.69-1.76,2.57,2.57,0,0,0-1.85-.64h-2.56v4.9h2.59a2.55,2.55,0,0,0,1.84-.65A2.48,2.48,0,0,0,151.78,47Zm13.49,5.27v-3.1h6.1V58.5a12.86,12.86,0,0,1-2.43.54,18.64,18.64,0,0,1-2.67.19c-2.9,0-5-.73-6.37-2.2s-2-3.74-2-6.83.66-5.35,2-6.82,3.37-2.2,6.17-2.2a18.29,18.29,0,0,1,2.44.16,12.2,12.2,0,0,1,2.06.44v3.3a13.71,13.71,0,0,0-2-.45,15,15,0,0,0-2.14-.15c-1.8,0-3,.41-3.67,1.22s-.95,2.3-.95,4.43.35,3.67,1.07,4.52,2,1.28,3.85,1.28l.67,0,.7,0v-3.6Zm20.07,6.68H174.56V41.48h10.78v3.1h-7V48.4h6.27v3.2h-6.27v4.23h7Zm10.36,0h-7.32V41.48h6.69a6.78,6.78,0,0,1,4.26,1.16A4.08,4.08,0,0,1,200.8,46a3.85,3.85,0,0,1-.65,2.25,4.3,4.3,0,0,1-1.94,1.47,5.11,5.11,0,0,1,2.46,1.47,3.56,3.56,0,0,1,.82,2.41A5,5,0,0,1,200,57.54,6.09,6.09,0,0,1,195.7,58.93Zm1.36-12.45a2,2,0,0,0-.49-1.5,2.39,2.39,0,0,0-1.62-.45h-2.81v3.95H195a2.4,2.4,0,0,0,1.64-.44A2,2,0,0,0,197.06,46.48Zm.7,7.22a2.25,2.25,0,0,0-.52-1.7,2.76,2.76,0,0,0-1.82-.47h-3.28v4.35h3.28a2.62,2.62,0,0,0,1.79-.5A2.16,2.16,0,0,0,197.76,53.7Zm19.69,5.23h-3.83c-.12-.62-.24-1.22-.36-1.81l-.39-1.77h-6c-.14.59-.27,1.17-.39,1.77s-.24,1.19-.36,1.81H202.4q.87-4,2.2-8.34t3.07-9.11h4.53q1.7,4.65,3,9C216.09,53.44,216.84,56.25,217.45,58.93Zm-7.61-14.5c-.4,1.25-.79,2.53-1.16,3.84s-.73,2.63-1.08,4h4.5c-.31-1.23-.66-2.5-1-3.8S210.28,45.81,209.84,44.43Zm16.45,14.8q-4.15,0-6-2.18t-1.89-6.9q0-4.65,1.84-6.81t5.87-2.16a13.8,13.8,0,0,1,2,.14,10.3,10.3,0,0,1,1.74.38V45a13.59,13.59,0,0,0-1.74-.41,11,11,0,0,0-1.72-.14c-1.62,0-2.73.42-3.32,1.27a8.11,8.11,0,0,0-.88,4.43,8,8,0,0,0,.95,4.48,3.81,3.81,0,0,0,3.3,1.32,11.09,11.09,0,0,0,1.7-.13,13.31,13.31,0,0,0,1.71-.39v3.32a9.89,9.89,0,0,1-1.63.35A13.21,13.21,0,0,1,226.29,59.23Zm20.51-.3h-4.28q-1.25-2.32-2.35-4.18c-.74-1.23-1.47-2.39-2.2-3.47l-1.79,2.32v5.33h-3.76V41.48h3.76v7.6l5.84-7.6h4.11l-5.4,7.12q1.52,2.25,3,4.79T246.8,58.93Z"/><path class="cls-1" d="M38,10.71A27,27,0,0,0,25,14l-2.37,7.1-2.9-3.34a27.79,27.79,0,0,0,10.12,47q3.85-10.8-.4-23.59Q42.9,38.74,55.62,59.58A27.73,27.73,0,0,0,38,10.71Z"/><path class="cls-1" d="M38,0C17,0,0,17.27,0,38.56a38.56,38.56,0,0,0,24.4,36,36.82,36.82,0,0,0,4-6.46,31.4,31.4,0,0,1-11.06-53l-3-3.4L26.15,9.52A30.57,30.57,0,0,1,38,7.14,31.31,31.31,0,0,1,57.44,62.69c1.17,2.07,2.33,4.27,3.48,6.63A38.7,38.7,0,0,0,76,38.56C76,17.27,59,0,38,0Z"/></g></g></g></g></svg>