<?xml version="1.0" encoding="UTF-8"?>
<svg width="16px" height="16px" viewBox="0 0 16 16" version="1.1" xmlns="http://www.w3.org/2000/svg" xmlns:xlink="http://www.w3.org/1999/xlink">
    <!-- Generator: Sketch 49.3 (51167) - http://www.bohemiancoding.com/sketch -->
    <title>more</title>
    <desc>Created with Sketch.</desc>
    <defs></defs>
    <g id="more" stroke="none" stroke-width="1" fill="none" fill-rule="evenodd">
        <g id="ico-more" transform="translate(0.000000, 6.000000)" fill="#000000" fill-rule="nonzero">
            <path d="M12.9271096,1.53402561 C12.9271096,0.630708741 13.5594314,0 14.4627483,0 C15.412844,0 16,0.587155963 16,1.53402561 C16,2.48089525 15.412844,3.06805121 14.4627483,3.06805121 C13.5594314,3.06805121 12.9271096,2.43572941 12.9271096,1.53402561 M6.46355479,1.53402561 C6.46355479,0.630708741 7.0958766,0 7.99919347,0 C8.94928924,0 9.53644521,0.587155963 9.53644521,1.53402561 C9.53644521,2.48089525 8.94928924,3.06805121 7.99919347,3.06805121 C7.0958766,3.06805121 6.46355479,2.43572941 6.46355479,1.53402561 M0,1.53402561 C0,0.630708741 0.632321807,0 1.53725174,0 C2.48573445,0 3.07289041,0.587155963 3.07289041,1.53402561 C3.07289041,2.48089525 2.48573445,3.06805121 1.53725174,3.06805121 C0.633934872,3.06805121 0,2.43572941 0,1.53402561" id="a"></path>
        </g>
    </g>
</svg>