<svg id="Calque_1" data-name="Calque 1" xmlns="http://www.w3.org/2000/svg" viewBox="0 0 13.79 15.37"><defs><style>.cls-1{fill:#fff;}.cls-2{fill:#525252;}</style></defs><title>pourc-automatisation-white</title><g id="Calque_2" data-name="Calque 2"><g id="Calque_1-2" data-name="Calque 1-2"><path class="cls-1" d="M11.4,7.68a4.5,4.5,0,1,0-4.5,4.5h0A4.49,4.49,0,0,0,11.4,7.7Z" transform="translate(0 0.03)"/><path class="cls-2" d="M7.9,2.65a.11.11,0,0,0,.1.09h.05L9.9,1.44a.08.08,0,0,0,0-.11h0L8.05,0a.09.09,0,0,0-.13,0,.1.1,0,0,0,0,.09V.78A7.92,7.92,0,0,0,0,8.68H1.19A6.69,6.69,0,0,1,7.9,2h0Z" transform="translate(0 0.03)"/><path class="cls-2" d="M12.62,6.68A6.72,6.72,0,0,1,5.9,13.4h0v-.69a.08.08,0,0,0-.08-.08h0L3.9,13.92a.09.09,0,0,0,0,.12h0l1.84,1.28a.09.09,0,0,0,.13,0,.11.11,0,0,0,0-.06v-.69a7.92,7.92,0,0,0,7.9-7.9Z" transform="translate(0 0.03)"/><path class="cls-2" d="M4.47,5.65a1.42,1.42,0,0,1,.34-1,1.15,1.15,0,0,1,.9-.38,1.14,1.14,0,0,1,.9.37,1.42,1.42,0,0,1,.34,1V6a1.42,1.42,0,0,1-.34,1,1.15,1.15,0,0,1-.89.37A1.17,1.17,0,0,1,4.82,7a1.46,1.46,0,0,1-.35-1ZM5.31,6a.76.76,0,0,0,.11.44.37.37,0,0,0,.3.16A.33.33,0,0,0,6,6.43.81.81,0,0,0,6.11,6V5.65A.81.81,0,0,0,6,5.22a.33.33,0,0,0-.45-.13.33.33,0,0,0-.13.13.77.77,0,0,0-.11.45ZM6,10.49l-.61-.35L8.05,5l.61.34ZM7.08,9.37a1.42,1.42,0,0,1,.34-1A1.12,1.12,0,0,1,8.31,8a1.24,1.24,0,0,1,.91.36,1.52,1.52,0,0,1,.34,1v.33a1.42,1.42,0,0,1-.34,1,1.14,1.14,0,0,1-.9.37,1.16,1.16,0,0,1-.91-.37,1.46,1.46,0,0,1-.33-1Zm.83.35a.69.69,0,0,0,.12.42.35.35,0,0,0,.29.18c.25,0,.38-.18.4-.54V9.37a.76.76,0,0,0-.11-.44.37.37,0,0,0-.3-.16c-.26,0-.4.23-.4.69Z" transform="translate(0 0.03)"/></g></g></svg>