<?xml version="1.0" encoding="UTF-8"?>
<svg width="139px" height="58px" viewBox="0 0 139 58" version="1.1" xmlns="http://www.w3.org/2000/svg" xmlns:xlink="http://www.w3.org/1999/xlink">
    <!-- Generator: Sketch 50.2 (55047) - http://www.bohemiancoding.com/sketch -->
    <title>Logos/RBOTS/Colors</title>
    <desc>Created with Sketch.</desc>
    <defs></defs>
    <g id="Logos/RBOTS/Colors" stroke="none" stroke-width="1" fill="none" fill-rule="evenodd">
        <g id="logo-rbots" fill-rule="nonzero">
            <g id="Group">
                <path d="M28.6466006,45.3423513 C28.6466006,45.3423513 25.6342776,45.3423513 25.6342776,45.3423513 C25.1026912,45.3423513 24.5711048,45.3423513 24.0592068,45.3423513 C23.1929178,45.3423513 22.3266289,45.4014164 21.4406516,45.381728 C19.6293201,45.3620397 17.7983003,45.0470255 16.0854108,44.4366856 C14.8647309,44.0035411 13.9,43.3932011 12.876204,42.6056657 C12.5415014,42.3497167 12.2067989,42.1331445 11.8524079,41.9362606 C10.7695467,41.3456091 9.56855524,41.0109065 8.34787535,40.9518414 C7.67847025,40.9124646 6.98937677,40.9715297 6.33966006,41.1093484 C3.2092068,41.7393768 0.905665722,44.1216714 0.137818697,46.9961756 L5.45368272,45.9133144 C7.34376771,45.5195467 9.17478754,46.7992918 9.56855524,48.7484419 C9.96232295,50.6975921 8.76133144,52.5876771 6.89093484,52.9814448 L1.57507082,54.0839943 C3.40609065,56.4466006 6.45779037,57.7066572 9.58824363,57.0569405 C10.4939093,56.879745 11.3208215,56.5450425 12.0689802,56.0922096 C12.4233711,55.8756374 12.7580737,55.6590652 13.0533994,55.4031161 C16.7745042,52.9814448 20.2790368,52.9026912 20.2790368,52.9026912 L25.5949008,52.9026912 L28.6072238,52.9026912 L36.7188385,52.9026912 L36.7188385,45.3423513 L28.6466006,45.3423513 Z" id="Shape" fill="#FCB318"></path>
                <path d="M138.940935,49.2406516 C138.940935,47.0355524 138.094334,45.0076487 136.716147,43.4916431 C136.716147,43.4916431 136.716147,43.4916431 136.696459,43.4719547 C136.027054,42.7434844 135.239518,42.1331445 134.353541,41.6803116 C132.128754,40.3415014 128.643909,39.1601983 125.060623,41.6409348 C120.532295,44.8107649 118.15,45.3226629 117.264023,45.381728 C117.264023,45.381728 116.870255,45.381728 116.870255,45.381728 L107.53796,45.381728 C107.53796,45.381728 102.556799,45.381728 102.556799,45.381728 C102.53711,46.4842776 102.517422,47.6065156 102.497734,48.7090652 C102.497734,49.2997167 102.478045,49.8706799 102.497734,50.4613314 C102.497734,50.9732295 102.478045,51.4457507 102.222096,51.918272 C101.966147,52.3907932 101.611756,52.5876771 101.217989,52.9026912 C101.454249,52.9026912 101.592068,52.9223796 101.788952,52.9223796 C102.103966,52.9223796 102.399292,52.9223796 102.714306,52.9223796 C103.304958,52.9223796 103.915297,52.9223796 104.505949,52.9223796 C105.726629,52.9223796 106.92762,52.9223796 108.1483,52.9223796 C108.227054,52.9223796 108.305807,52.9223796 108.384561,52.9223796 L114.606091,52.9223796 C114.606091,52.9223796 120.374788,53.0798867 124.076204,55.7771955 C127.77762,58.4745042 131.892493,57.5885269 131.892493,57.5885269 C135.908924,56.9191218 138.940935,53.4342776 138.940935,49.2406516 Z M134.904816,51.9970255 L130.140227,54.7533994 L125.375637,51.9970255 L125.375637,46.503966 L130.140227,43.7475921 L134.904816,46.503966 L134.904816,51.9970255 Z" id="Shape" fill="#FCB318"></path>
                <path d="M48.0199717,40.7155807 L36.7385269,40.7155807 L36.7385269,37.7820113 L46.2677054,38.0773371 C47.0946176,38.0773371 47.6852691,39.9477337 48.0199717,40.7155807 Z M48.1577904,42.2315864 L36.7188385,42.2315864 L36.7188385,41.0896601 L48.1184136,41.0896601 C48.138102,41.2077904 48.1577904,41.3456091 48.1577904,41.4637394 L48.1577904,42.2315864 Z M39.5933428,43.7672805 L36.7385269,43.7672805 L36.7385269,42.6253541 L39.5933428,42.6253541 L39.5933428,43.7672805 Z M48.0199717,44.1413598 C47.6852691,44.9092068 47.1143059,45.2832861 46.2677054,45.2832861 L36.7385269,45.2832861 L36.7385269,44.1413598 L48.0199717,44.1413598 Z M48.0199717,46.8189802 L36.7385269,46.8189802 L36.7385269,45.6770538 L46.2677054,45.6770538 C47.0946176,45.6770538 47.6852691,46.0511331 48.0199717,46.8189802 Z M39.5933428,48.3349858 L36.7385269,48.3349858 L36.7385269,47.1930595 L39.5933428,47.1930595 L39.5933428,48.3349858 Z M39.5933428,49.8706799 L36.7385269,49.8706799 L36.7385269,48.7287535 L39.5933428,48.7287535 L39.5933428,49.8706799 Z M39.5933428,51.3866856 L36.7385269,51.3866856 L36.7385269,50.2447592 L39.5933428,50.2447592 L39.5933428,51.3866856 Z M39.5933428,52.9026912 L36.7385269,52.9026912 L36.7385269,51.7607649 L39.5933428,51.7607649 L39.5933428,52.9026912 Z M48.1577904,43.3735127 C48.1577904,43.4916431 48.138102,43.6294618 48.1184136,43.7475921 L45.3029745,43.7475921 L45.3029745,42.6056657 L48.1577904,42.6056657 L48.1577904,43.3735127 Z M48.1577904,48.3349858 L45.3029745,48.3349858 L45.3029745,47.1930595 L48.1184136,47.1930595 C48.138102,47.3111898 48.1577904,47.4490085 48.1577904,47.5671388 L48.1577904,48.3349858 Z M48.1577904,49.8706799 L45.3029745,49.8706799 L45.3029745,48.7287535 L48.1577904,48.7287535 L48.1577904,49.8706799 Z M48.1577904,51.3866856 L45.3029745,51.3866856 L45.3029745,50.2447592 L48.1577904,50.2447592 L48.1577904,51.3866856 Z M48.1577904,52.9026912 L45.3029745,52.9026912 L45.3029745,51.7607649 L48.1577904,51.7607649 L48.1577904,52.9026912 Z" id="Shape" fill="#010101"></path>
                <path d="M52.0560907,40.676204 L49.2209632,40.676204 L49.2209632,38.3529745 L52.0560907,38.3529745 L52.0560907,40.676204 Z M52.0560907,42.1922096 L49.2209632,42.1922096 L49.2209632,41.0502833 L52.0560907,41.0502833 L52.0560907,42.1922096 Z M52.0560907,43.7082153 L50.6385269,43.7082153 L50.6385269,42.566289 L52.0560907,42.566289 L52.0560907,43.7082153 Z" id="Shape" fill="#010101"></path>
                <path d="M64.5975921,40.7155807 L53.3161473,40.7155807 L53.3161473,38.3726629 L62.8453258,38.0773371 C63.672238,38.0773371 64.2628895,39.9477337 64.5975921,40.7155807 Z M64.7550992,42.2315864 L53.3161473,42.2315864 L53.3161473,41.0896601 L64.7157224,41.0896601 C64.7354108,41.2077904 64.7550992,41.3456091 64.7550992,41.4637394 L64.7550992,42.2315864 Z M56.1709632,43.7672805 L53.3161473,43.7672805 L53.3161473,42.6253541 L56.1709632,42.6253541 L56.1709632,43.7672805 Z M64.5975921,44.1413598 C64.2628895,44.9092068 63.6919263,45.2832861 62.8453258,45.2832861 L53.3161473,45.2832861 L53.3161473,44.1413598 L64.5975921,44.1413598 Z M64.5975921,46.8189802 L53.3161473,46.8189802 L53.3161473,45.6770538 L62.8453258,45.6770538 C63.672238,45.6770538 64.2628895,46.0511331 64.5975921,46.8189802 Z M56.1709632,48.3349858 L53.3161473,48.3349858 L53.3161473,47.1930595 L56.1709632,47.1930595 L56.1709632,48.3349858 Z M56.1709632,49.8706799 L53.3161473,49.8706799 L53.3161473,48.7287535 L56.1709632,48.7287535 L56.1709632,49.8706799 Z M64.7550992,51.0126062 C64.7550992,51.1307365 64.7354108,51.2685552 64.7157224,51.3866856 L53.3161473,51.3866856 L53.3161473,50.2447592 L64.7550992,50.2447592 L64.7550992,51.0126062 Z M64.5975921,51.7607649 C64.2628895,52.5286119 63.6919263,52.9026912 62.8453258,52.9026912 L53.3161473,52.9026912 L53.3161473,51.7607649 L64.5975921,51.7607649 Z M64.7550992,43.3735127 C64.7550992,43.4916431 64.7354108,43.6294618 64.7157224,43.7475921 L61.9002833,43.7475921 L61.9002833,42.6056657 L64.7550992,42.6056657 L64.7550992,43.3735127 Z M64.7550992,48.3349858 L61.9002833,48.3349858 L61.9002833,47.1930595 L64.7157224,47.1930595 C64.7354108,47.3111898 64.7550992,47.4490085 64.7550992,47.5671388 L64.7550992,48.3349858 Z M64.7550992,49.8706799 L61.9002833,49.8706799 L61.9002833,48.7287535 L64.7550992,48.7287535 L64.7550992,49.8706799 Z" id="Shape" fill="#010101"></path>
                <path d="M77.3359773,42.2315864 L65.8970255,42.2315864 L65.8970255,41.4637394 C65.8970255,41.3456091 65.9167139,41.2077904 65.9364023,41.0896601 L77.2966006,41.0896601 C77.316289,41.2077904 77.3359773,41.3456091 77.3359773,41.4637394 L77.3359773,42.2315864 Z M68.7518414,43.7672805 L65.8970255,43.7672805 L65.8970255,42.6253541 L68.7518414,42.6253541 L68.7518414,43.7672805 Z M68.7518414,45.2832861 L65.8970255,45.2832861 L65.8970255,44.1413598 L68.7518414,44.1413598 L68.7518414,45.2832861 Z M68.7518414,46.8189802 L65.8970255,46.8189802 L65.8970255,45.6770538 L68.7518414,45.6770538 L68.7518414,46.8189802 Z M68.7518414,48.3349858 L65.8970255,48.3349858 L65.8970255,47.1930595 L68.7518414,47.1930595 L68.7518414,48.3349858 Z M68.7518414,49.8706799 L65.8970255,49.8706799 L65.8970255,48.7287535 L68.7518414,48.7287535 L68.7518414,49.8706799 Z M77.3359773,51.0126062 C77.3359773,51.1307365 77.316289,51.2685552 77.2966006,51.3866856 L65.9364023,51.3866856 C65.9167139,51.2685552 65.8970255,51.1307365 65.8970255,51.0126062 L65.8970255,50.2447592 L77.3359773,50.2447592 L77.3359773,51.0126062 Z M77.1784703,40.7155807 L66.0545326,40.7155807 C66.3892351,39.9477337 66.9601983,37.7820113 67.8067989,37.7820113 L75.426204,37.7820113 C76.2531161,37.7820113 76.8437677,39.9477337 77.1784703,40.7155807 Z M77.1784703,51.7607649 C76.8437677,52.5286119 76.2728045,52.9026912 75.426204,52.9026912 L67.8067989,52.9026912 C66.9601983,52.9026912 66.3892351,52.5286119 66.0545326,51.7607649 L77.1784703,51.7607649 Z M77.3359773,43.7672805 L74.4811615,43.7672805 L74.4811615,42.6253541 L77.3359773,42.6253541 L77.3359773,43.7672805 Z M77.3359773,45.2832861 L74.4811615,45.2832861 L74.4811615,44.1413598 L77.3359773,44.1413598 L77.3359773,45.2832861 Z M77.3359773,46.8189802 L74.4811615,46.8189802 L74.4811615,45.6770538 L77.3359773,45.6770538 L77.3359773,46.8189802 Z M77.3359773,48.3349858 L74.4811615,48.3349858 L74.4811615,47.1930595 L77.3359773,47.1930595 L77.3359773,48.3349858 Z M77.3359773,49.8706799 L74.4811615,49.8706799 L74.4811615,48.7287535 L77.3359773,48.7287535 L77.3359773,49.8706799 Z" id="Shape" fill="#010101"></path>
                <path d="M89.8971671,40.7155807 L78.4582153,40.7155807 L78.4582153,37.4866856 L89.8971671,36.896034 L89.8971671,40.7155807 Z M89.8971671,42.2315864 L78.4582153,42.2315864 L78.4582153,41.0896601 L89.8971671,41.0896601 L89.8971671,42.2315864 Z M85.801983,43.7672805 L82.9471671,43.7672805 L82.9471671,42.6253541 L85.801983,42.6253541 L85.801983,43.7672805 Z M85.801983,45.2832861 L82.9471671,45.2832861 L82.9471671,44.1413598 L85.801983,44.1413598 L85.801983,45.2832861 Z M85.801983,46.8189802 L82.9471671,46.8189802 L82.9471671,45.6770538 L85.801983,45.6770538 L85.801983,46.8189802 Z M85.801983,48.3349858 L82.9471671,48.3349858 L82.9471671,47.1930595 L85.801983,47.1930595 L85.801983,48.3349858 Z M85.801983,49.8706799 L82.9471671,49.8706799 L82.9471671,48.7287535 L85.801983,48.7287535 L85.801983,49.8706799 Z M85.801983,51.3866856 L82.9471671,51.3866856 L82.9471671,50.2447592 L85.801983,50.2447592 L85.801983,51.3866856 Z M85.801983,52.9026912 L82.9471671,52.9026912 L82.9471671,51.7607649 L85.801983,51.7607649 L85.801983,52.9026912 Z" id="Shape" fill="#010101"></path>
                <path d="M102.478045,42.2315864 L91.0390935,42.2315864 L91.0390935,41.4637394 C91.0390935,41.3456091 91.0587819,41.2077904 91.0784703,41.0896601 L102.478045,41.0896601 L102.478045,42.2315864 Z M93.9135977,43.7672805 L91.0587819,43.7672805 L91.0587819,42.6253541 L93.9135977,42.6253541 L93.9135977,43.7672805 Z M102.340227,45.2832861 L91.0981586,45.2832861 C91.0784703,45.1651558 91.0587819,45.0273371 91.0587819,44.9092068 L91.0587819,44.1413598 L100.58796,44.1413598 C101.414873,44.1413598 102.005524,44.5154391 102.340227,45.2832861 Z M102.478045,51.0126062 C102.478045,51.1307365 102.458357,51.2685552 102.438669,51.3866856 L91.0390935,51.3866856 L91.0390935,50.2447592 L102.478045,50.2447592 L102.478045,51.0126062 Z M102.340227,51.7607649 C102.005524,52.5286119 101.434561,52.9026912 100.58796,52.9026912 L91.0587819,52.9026912 L91.0587819,51.7607649 L102.340227,51.7607649 Z M102.478045,40.7155807 L91.1966006,40.7155807 C91.2950425,39.8886686 92.0432011,37.6245042 92.9488669,37.3685552 L102.478045,37.2701133 L102.478045,40.7155807 Z M102.478045,46.8189802 L92.9488669,46.8189802 C92.1022663,46.8189802 91.5313031,46.4449008 91.1966006,45.6770538 L102.438669,45.6770538 C102.458357,45.7951841 102.478045,45.9330028 102.478045,46.0511331 L102.478045,46.8189802 Z M102.478045,48.3349858 L99.6232295,48.3349858 L99.6232295,47.1930595 L102.478045,47.1930595 L102.478045,48.3349858 Z M102.478045,49.8706799 L99.6232295,49.8706799 L99.6232295,48.7287535 L102.478045,48.7287535 L102.478045,49.8706799 Z" id="Shape" fill="#010101"></path>
                <path d="M106.258215,21.7359773 L101.710198,14.9041076 L94.8586402,19.0780453 C92.7913598,16.813881 90.4287535,14.8253541 87.8298867,13.1715297 L90.5075071,5.90651558 L82.9865439,2.73668555 L79.363881,9.27322946 C76.4893768,8.40694051 73.4573654,7.91473088 70.3072238,7.83597734 L69.1062323,0.0196883853 L61.1127479,0.885977337 L61.1127479,8.85977337 C58.2185552,9.58824363 55.4621813,10.6711048 52.9223796,12.0886686 L47.8624646,5.80807365 L41.2077904,10.8286119 L45.4604816,17.6407932 C44.2201133,18.8417847 43.078187,20.1412181 42.0347025,21.5390935 C42.3300283,21.4997167 42.6253541,21.4406516 42.9009915,21.4012748 L44.3776204,21.1847025 L45.125779,21.0665722 C45.381728,21.0271955 45.6179887,21.0075071 45.8739377,20.9878187 L45.9526912,20.9878187 C51.7607649,14.5497167 60.148017,10.4939093 69.4803116,10.4939093 C83.8331445,10.4939093 95.9808782,20.1018414 99.8594901,33.2143059 C100.765156,33.2339943 101.69051,33.2536827 102.655241,33.3127479 C102.044901,31.0485836 101.217989,28.9025496 100.194193,26.8352691 L106.258215,21.7359773 Z" id="Shape" fill="#153137"></path>
                <path d="M88.6371105,30.4382436 L87.3967422,29.6507082 C87.18017,29.5128895 86.9832861,29.3947592 86.7667139,29.2766289 L86.1169972,28.922238 C85.2507082,28.4497167 84.3844193,28.0165722 83.5181303,27.544051 C83.0849858,27.3274788 82.6518414,27.0715297 82.1990085,26.8943343 L80.8601983,26.3036827 L78.1432011,25.142068 C77.217847,24.8073654 76.2924929,24.4726629 75.3474504,24.1576487 L73.9495751,23.6654391 C73.4770538,23.507932 73.0045326,23.3898017 72.5320113,23.251983 C71.5869688,22.9763456 70.622238,22.7203966 69.6575071,22.4644476 C68.6927762,22.228187 67.7083569,22.0509915 66.7436261,21.8344193 L65.2866856,21.5390935 C64.7944759,21.4603399 64.3022663,21.4012748 63.8100567,21.3225212 C62.8256374,21.1847025 61.8412181,21.0271955 60.8371105,20.9287535 L57.8444759,20.6924929 C56.8403683,20.594051 55.855949,20.6137394 54.8518414,20.594051 C53.8477337,20.5743626 52.8436261,20.5349858 51.8592068,20.594051 C50.8550992,20.6334278 49.8706799,20.6728045 48.8665722,20.7318697 L45.9526912,21.0075071 L45.8739377,21.0075071 C45.6179887,21.0271955 45.381728,21.0665722 45.125779,21.0862606 L44.3776204,21.2043909 L42.9009915,21.4209632 C42.6056657,21.4603399 42.3103399,21.5194051 42.0347025,21.5587819 C41.8378187,21.5981586 41.6409348,21.617847 41.4243626,21.6572238 C40.932153,21.7556657 40.4399433,21.8541076 39.9477337,21.9525496 C38.9633144,22.1691218 37.9985836,22.3463173 37.0338527,22.6022663 C36.0691218,22.8582153 35.1043909,23.0747875 34.1396601,23.3701133 C33.1946176,23.6654391 32.2298867,23.9607649 31.2848442,24.2560907 C30.3398017,24.5907932 29.4144476,24.9254958 28.4890935,25.2798867 C27.5637394,25.653966 26.6383853,26.0280453 25.7327195,26.4021246 C24.8270538,26.7958924 23.9213881,27.2290368 23.0354108,27.6424929 C19.471813,29.3750708 16.046034,31.3635977 12.8565156,33.6671388 C11.242068,34.8090652 9.70637394,36.029745 8.22974504,37.3094901 C6.75311615,38.5892351 5.31586402,39.9477337 4.05580737,41.4243626 C7.40283286,39.4161473 10.8089235,37.6441926 14.2543909,36.029745 C17.6998584,34.4152975 21.2043909,32.9583569 24.7483003,31.6983003 C29.178187,30.1035411 33.6671388,28.8434844 38.2348442,27.8984419 C39.3177054,27.6818697 40.420255,27.4652975 41.5031161,27.288102 C43.1569405,27.0124646 44.8304533,26.7565156 46.503966,26.5596317 L49.2800283,26.2643059 L52.0560907,26.1067989 C52.9814448,26.0280453 53.9067989,26.0280453 54.832153,26.0083569 C55.7575071,25.9886686 56.6828612,25.9492918 57.6279037,25.9886686 L60.4236544,26.0477337 L63.2194051,26.2249292 C63.6919263,26.2643059 64.1447592,26.2839943 64.6172805,26.3233711 L66.0151558,26.4808782 C66.9405099,26.5793201 67.8855524,26.6580737 68.8109065,26.776204 C69.7362606,26.933711 70.6616147,27.0715297 71.6066572,27.2093484 C72.0791785,27.288102 72.5320113,27.3274788 73.0045326,27.4259207 C73.4573654,27.5243626 73.9298867,27.6031161 74.3827195,27.7015581 L77.1784703,28.2331445 L79.9545326,28.9025496 L81.3524079,29.2175637 C81.8249292,29.3160057 82.277762,29.4735127 82.7305949,29.5916431 C83.655949,29.8475921 84.5813031,30.1035411 85.5066572,30.3594901 L86.2154391,30.5366856 L86.9045326,30.7532578 L88.2827195,31.1864023 C89.2080737,31.4620397 90.1334278,31.7573654 91.0784703,32.0133144 C90.2909348,31.481728 89.4640227,30.96983 88.6371105,30.4382436 Z" id="Shape" fill="#FCB318"></path>
            </g>
            <path d="M135.239518,42.1922096 C130.82932,40.8140227 126.773513,39.7705382 122.284561,39.0617564 C122.008924,39.0026912 121.733286,38.9633144 121.43796,38.9239377 L120.59136,38.8058074 C120.020397,38.7270538 119.469122,38.6483003 118.898159,38.5695467 L117.204958,38.3726629 L116.358357,38.274221 L115.511756,38.1954674 L113.818555,38.0379603 C113.247592,37.9788952 112.696317,37.9592068 112.125354,37.91983 C111.003116,37.8410765 109.86119,37.8016997 108.738952,37.7426346 L107.892351,37.7032578 L107.045751,37.6835694 L105.35255,37.6441926 C104.210623,37.6245042 103.088385,37.6048159 101.946459,37.6048159 C100.804533,37.6048159 99.6822946,37.6048159 98.5403683,37.6441926 L96.8274788,37.663881 L95.1145892,37.7032578 C92.8504249,37.7820113 90.5665722,37.8607649 88.2827195,37.9592068 C85.9988669,38.0773371 83.6953258,38.1560907 81.4114731,38.2545326 C79.107932,38.3529745 76.8043909,38.431728 74.5008499,38.4907932 L71.0356941,38.5695467 C69.8740793,38.5892351 68.7124646,38.5892351 67.5705382,38.6089235 C65.2669972,38.6286119 62.9634561,38.6483003 60.659915,38.6286119 C58.3563739,38.6089235 56.0528329,38.6089235 53.7492918,38.5498584 C49.1422096,38.4514164 44.5154391,38.274221 39.9083569,37.9592068 L38.175779,37.8410765 L36.4628895,37.7032578 C35.3603399,37.6245042 34.1987252,37.5654391 33.0174221,37.4669972 C31.836119,37.3882436 30.6351275,37.2504249 29.434136,37.0338527 C28.2331445,36.8172805 26.9927762,36.4825779 25.7917847,35.9706799 L22.6416431,34.6121813 L25.6933428,33.3521246 C26.5399433,32.9977337 27.3274788,32.7024079 28.1543909,32.4070822 C28.9813031,32.1117564 29.8082153,31.8164306 30.6351275,31.5604816 C32.2889518,31.0288952 33.982153,30.5366856 35.6753541,30.1429178 C36.0888102,30.0444759 36.5219547,29.946034 36.9550992,29.8672805 C37.3882436,29.7885269 37.8016997,29.690085 38.2348442,29.6113314 L39.5342776,29.3947592 L40.833711,29.2372521 C41.2668555,29.178187 41.7,29.1584986 42.1331445,29.1388102 L42.7828612,29.0994334 C42.9994334,29.079745 43.2160057,29.0994334 43.4325779,29.0994334 L44.0822946,29.0994334 C44.2988669,29.0994334 44.5154391,29.0994334 44.7320113,29.1191218 L46.0314448,29.2372521 L44.7516997,29.3750708 C44.5351275,29.3947592 44.3185552,29.434136 44.1216714,29.4735127 L43.4916431,29.5916431 C43.2750708,29.6310198 43.078187,29.6507082 42.8616147,29.7097734 L42.2315864,29.8672805 C41.8181303,29.9657224 41.4046742,30.0444759 40.9912181,30.1822946 C39.3373938,30.6154391 37.7426346,31.1864023 36.1478754,31.7770538 L34.9665722,32.2298867 L33.7852691,32.7220963 C32.9977337,33.0567989 32.2298867,33.3915014 31.4620397,33.7458924 C31.068272,33.9230878 30.6941926,34.1002833 30.3004249,34.2774788 C29.9066572,34.4546742 29.5325779,34.6318697 29.1584986,34.8287535 C28.4103399,35.2028329 27.6228045,35.5769122 26.9140227,35.9706799 L26.8155807,33.3324363 C27.7606232,33.627762 28.7844193,33.8246459 29.8475921,33.9033994 C30.9107649,34.0018414 32.0133144,34.0215297 33.1355524,34.0215297 C34.2577904,34.0215297 35.3997167,33.982153 36.5810198,33.982153 L40.0264873,34.0018414 C42.3103399,34.0018414 44.5941926,34.0018414 46.8780453,34.0018414 L53.7492918,33.9427762 L67.5114731,33.7458924 L74.3630312,33.6474504 L81.2342776,33.4899433 C83.5378187,33.4505666 85.8216714,33.3915014 88.1449008,33.371813 C90.4484419,33.3521246 92.7716714,33.3324363 95.0949008,33.3915014 C97.4181303,33.4308782 99.7413598,33.5293201 102.064589,33.6671388 C102.635552,33.6868272 103.226204,33.7458924 103.797167,33.7852691 C104.36813,33.8246459 104.958782,33.8640227 105.529745,33.9230878 L107.262323,34.1002833 L108.128612,34.1987252 L108.994901,34.2971671 C113.621671,34.8681303 118.228754,35.7147309 122.698017,37.0141643 C126.399433,38.0773371 129.963031,39.5145892 133.38881,41.2668555 C133.723513,41.444051 134.058215,41.6015581 134.373229,41.7787535 C134.668555,41.8968839 134.983569,42.1331445 135.239518,42.1922096 Z" id="Shape" fill="#FCB318"></path>
        </g>
    </g>
</svg>