<?xml version="1.0" encoding="utf-8"?>
<!-- Generator: Adobe Illustrator 22.1.0, SVG Export Plug-In . SVG Version: 6.00 Build 0)  -->
<svg version="1.1" id="Calque_1" xmlns="http://www.w3.org/2000/svg" xmlns:xlink="http://www.w3.org/1999/xlink" x="0px" y="0px"
	 viewBox="0 0 139 58" style="enable-background:new 0 0 139 58;" xml:space="preserve">
<style type="text/css">
	.st0{fill:#FCB318;}
	.st1{fill:#010101;}
	.st2{fill:#153137;}
</style>
<title>Logos/RBOTS/Colors</title>
<desc>Created with Sketch.</desc>
<g id="Logos_x2F_RBOTS_x2F_Colors">
	<g id="logo-rbots">
		<g id="Group">
			<path id="Shape" class="st0" d="M28.6,45.3h-3c-0.5,0-1.1,0-1.6,0c-0.9,0-1.7,0.1-2.6,0c-1.8,0-3.6-0.3-5.4-0.9
				c-1.2-0.4-2.2-1-3.2-1.8c-0.3-0.3-0.7-0.5-1-0.7c-1.1-0.6-2.3-0.9-3.5-1c-0.7,0-1.4,0-2,0.2c-3.1,0.6-5.4,3-6.2,5.9l5.3-1.1
				c1.9-0.4,3.7,0.9,4.1,2.8c0.4,1.9-0.8,3.8-2.7,4.2l-5.3,1.1c1.8,2.4,4.9,3.6,8,3c0.9-0.2,1.7-0.5,2.5-1c0.4-0.2,0.7-0.4,1-0.7
				c3.7-2.4,7.2-2.5,7.2-2.5h5.3h3h8.1v-7.6H28.6z"/>
			<path id="Shape_1_" class="st0" d="M138.9,49.2c0-2.2-0.8-4.2-2.2-5.7c0,0,0,0,0,0c-0.7-0.7-1.5-1.3-2.3-1.8
				c-2.2-1.3-5.7-2.5-9.3,0c-4.5,3.2-6.9,3.7-7.8,3.7h-0.4h-9.3h-5c0,1.1,0,2.2-0.1,3.3c0,0.6,0,1.2,0,1.8c0,0.5,0,1-0.3,1.5
				c-0.3,0.5-0.6,0.7-1,1c0.2,0,0.4,0,0.6,0c0.3,0,0.6,0,0.9,0c0.6,0,1.2,0,1.8,0c1.2,0,2.4,0,3.6,0c0.1,0,0.2,0,0.2,0h6.2
				c0,0,5.8,0.2,9.5,2.9s7.8,1.8,7.8,1.8C135.9,56.9,138.9,53.4,138.9,49.2z M134.9,52l-4.8,2.8l-4.8-2.8v-5.5l4.8-2.8l4.8,2.8V52z"
				/>
			<path id="Shape_2_" class="st1" d="M48,40.7H36.7v-2.9l9.5,0.3C47.1,38.1,47.7,39.9,48,40.7z M48.2,42.2H36.7v-1.1h11.4
				c0,0.1,0,0.3,0,0.4V42.2z M39.6,43.8h-2.9v-1.1h2.9V43.8z M48,44.1c-0.3,0.8-0.9,1.1-1.8,1.1h-9.5v-1.1H48z M48,46.8H36.7v-1.1
				h9.5C47.1,45.7,47.7,46.1,48,46.8z M39.6,48.3h-2.9v-1.1h2.9V48.3z M39.6,49.9h-2.9v-1.1h2.9V49.9z M39.6,51.4h-2.9v-1.1h2.9
				V51.4z M39.6,52.9h-2.9v-1.1h2.9V52.9z M48.2,43.4c0,0.1,0,0.3,0,0.4h-2.8v-1.1h2.9V43.4z M48.2,48.3h-2.9v-1.1h2.8
				c0,0.1,0,0.3,0,0.4V48.3z M48.2,49.9h-2.9v-1.1h2.9V49.9z M48.2,51.4h-2.9v-1.1h2.9V51.4z M48.2,52.9h-2.9v-1.1h2.9V52.9z"/>
			<path id="Shape_3_" class="st1" d="M52.1,40.7h-2.8v-2.3h2.8V40.7z M52.1,42.2h-2.8v-1.1h2.8V42.2z M52.1,43.7h-1.4v-1.1h1.4
				V43.7z"/>
			<path id="Shape_4_" class="st1" d="M64.6,40.7H53.3v-2.3l9.5-0.3C63.7,38.1,64.3,39.9,64.6,40.7z M64.8,42.2H53.3v-1.1h11.4
				c0,0.1,0,0.3,0,0.4V42.2z M56.2,43.8h-2.9v-1.1h2.9V43.8z M64.6,44.1c-0.3,0.8-0.9,1.1-1.8,1.1h-9.5v-1.1H64.6z M64.6,46.8H53.3
				v-1.1h9.5C63.7,45.7,64.3,46.1,64.6,46.8z M56.2,48.3h-2.9v-1.1h2.9V48.3z M56.2,49.9h-2.9v-1.1h2.9V49.9z M64.8,51
				c0,0.1,0,0.3,0,0.4H53.3v-1.1h11.4V51z M64.6,51.8c-0.3,0.8-0.9,1.1-1.8,1.1h-9.5v-1.1H64.6z M64.8,43.4c0,0.1,0,0.3,0,0.4h-2.8
				v-1.1h2.9V43.4z M64.8,48.3h-2.9v-1.1h2.8c0,0.1,0,0.3,0,0.4V48.3z M64.8,49.9h-2.9v-1.1h2.9V49.9z"/>
			<path id="Shape_5_" class="st1" d="M77.3,42.2H65.9v-0.8c0-0.1,0-0.3,0-0.4h11.4c0,0.1,0,0.3,0,0.4V42.2z M68.8,43.8h-2.9v-1.1
				h2.9V43.8z M68.8,45.3h-2.9v-1.1h2.9V45.3z M68.8,46.8h-2.9v-1.1h2.9V46.8z M68.8,48.3h-2.9v-1.1h2.9V48.3z M68.8,49.9h-2.9v-1.1
				h2.9V49.9z M77.3,51c0,0.1,0,0.3,0,0.4H65.9c0-0.1,0-0.3,0-0.4v-0.8h11.4V51z M77.2,40.7H66.1c0.3-0.8,0.9-2.9,1.8-2.9h7.6
				C76.3,37.8,76.8,39.9,77.2,40.7z M77.2,51.8c-0.3,0.8-0.9,1.1-1.8,1.1h-7.6c-0.8,0-1.4-0.4-1.8-1.1H77.2z M77.3,43.8h-2.9v-1.1
				h2.9V43.8z M77.3,45.3h-2.9v-1.1h2.9V45.3z M77.3,46.8h-2.9v-1.1h2.9V46.8z M77.3,48.3h-2.9v-1.1h2.9V48.3z M77.3,49.9h-2.9v-1.1
				h2.9V49.9z"/>
			<path id="Shape_6_" class="st1" d="M89.9,40.7H78.5v-3.2l11.4-0.6V40.7z M89.9,42.2H78.5v-1.1h11.4V42.2z M85.8,43.8h-2.9v-1.1
				h2.9V43.8z M85.8,45.3h-2.9v-1.1h2.9V45.3z M85.8,46.8h-2.9v-1.1h2.9V46.8z M85.8,48.3h-2.9v-1.1h2.9V48.3z M85.8,49.9h-2.9v-1.1
				h2.9V49.9z M85.8,51.4h-2.9v-1.1h2.9V51.4z M85.8,52.9h-2.9v-1.1h2.9V52.9z"/>
			<path id="Shape_7_" class="st1" d="M102.5,42.2H91v-0.8c0-0.1,0-0.3,0-0.4h11.4V42.2z M93.9,43.8h-2.9v-1.1h2.9V43.8z
				 M102.3,45.3H91.1c0-0.1,0-0.3,0-0.4v-0.8h9.5C101.4,44.1,102,44.5,102.3,45.3z M102.5,51c0,0.1,0,0.3,0,0.4H91v-1.1h11.4V51z
				 M102.3,51.8c-0.3,0.8-0.9,1.1-1.8,1.1h-9.5v-1.1H102.3z M102.5,40.7H91.2c0.1-0.8,0.8-3.1,1.8-3.3l9.5-0.1V40.7z M102.5,46.8
				h-9.5c-0.8,0-1.4-0.4-1.8-1.1h11.2c0,0.1,0,0.3,0,0.4V46.8z M102.5,48.3h-2.9v-1.1h2.9V48.3z M102.5,49.9h-2.9v-1.1h2.9V49.9z"/>
			<path id="Shape_8_" class="st2" d="M106.3,21.7l-4.5-6.8l-6.9,4.2c-2.1-2.3-4.4-4.3-7-5.9l2.7-7.3L83,2.7l-3.6,6.5
				c-2.9-0.9-5.9-1.4-9.1-1.4L69.1,0l-8,0.9v8c-2.9,0.7-5.7,1.8-8.2,3.2l-5.1-6.3l-6.7,5l4.3,6.8c-1.2,1.2-2.4,2.5-3.4,3.9
				c0.3,0,0.6-0.1,0.9-0.1l1.5-0.2l0.7-0.1c0.3,0,0.5-0.1,0.7-0.1H46c5.8-6.4,14.2-10.5,23.5-10.5c14.4,0,26.5,9.6,30.4,22.7
				c0.9,0,1.8,0,2.8,0.1c-0.6-2.3-1.4-4.4-2.5-6.5L106.3,21.7z"/>
			<path id="Shape_9_" class="st0" d="M88.6,30.4l-1.2-0.8c-0.2-0.1-0.4-0.3-0.6-0.4l-0.6-0.4c-0.9-0.5-1.7-0.9-2.6-1.4
				c-0.4-0.2-0.9-0.5-1.3-0.6l-1.3-0.6l-2.7-1.2c-0.9-0.3-1.9-0.7-2.8-1l-1.4-0.5c-0.5-0.2-0.9-0.3-1.4-0.4
				c-0.9-0.3-1.9-0.5-2.9-0.8c-1-0.2-1.9-0.4-2.9-0.6l-1.5-0.3c-0.5-0.1-1-0.1-1.5-0.2c-1-0.1-2-0.3-3-0.4l-3-0.2
				c-1-0.1-2-0.1-3-0.1c-1,0-2-0.1-3,0c-1,0-2,0.1-3,0.1L46,21h-0.1c-0.3,0-0.5,0.1-0.7,0.1l-0.7,0.1l-1.5,0.2
				c-0.3,0-0.6,0.1-0.9,0.1c-0.2,0-0.4,0.1-0.6,0.1c-0.5,0.1-1,0.2-1.5,0.3c-1,0.2-1.9,0.4-2.9,0.6c-1,0.3-1.9,0.5-2.9,0.8
				c-0.9,0.3-1.9,0.6-2.9,0.9c-0.9,0.3-1.9,0.7-2.8,1c-0.9,0.4-1.9,0.7-2.8,1.1c-0.9,0.4-1.8,0.8-2.7,1.2c-3.6,1.7-7,3.7-10.2,6
				c-1.6,1.1-3.2,2.4-4.6,3.6c-1.5,1.3-2.9,2.6-4.2,4.1c3.3-2,6.8-3.8,10.2-5.4c3.4-1.6,7-3.1,10.5-4.3c4.4-1.6,8.9-2.9,13.5-3.8
				c1.1-0.2,2.2-0.4,3.3-0.6c1.7-0.3,3.3-0.5,5-0.7l2.8-0.3l2.8-0.2C53,26,53.9,26,54.8,26c0.9,0,1.9-0.1,2.8,0l2.8,0.1l2.8,0.2
				c0.5,0,0.9,0.1,1.4,0.1l1.4,0.2c0.9,0.1,1.9,0.2,2.8,0.3c0.9,0.2,1.9,0.3,2.8,0.4c0.5,0.1,0.9,0.1,1.4,0.2
				c0.5,0.1,0.9,0.2,1.4,0.3l2.8,0.5l2.8,0.7l1.4,0.3c0.5,0.1,0.9,0.3,1.4,0.4c0.9,0.3,1.9,0.5,2.8,0.8l0.7,0.2l0.7,0.2l1.4,0.4
				c0.9,0.3,1.9,0.6,2.8,0.8C90.3,31.5,89.5,31,88.6,30.4z"/>
		</g>
		<path id="Shape_10_" class="st0" d="M135.2,42.2c-4.4-1.4-8.5-2.4-13-3.1c-0.3-0.1-0.6-0.1-0.8-0.1l-0.8-0.1
			c-0.6-0.1-1.1-0.2-1.7-0.2l-1.7-0.2l-0.8-0.1l-0.8-0.1l-1.7-0.2c-0.6-0.1-1.1-0.1-1.7-0.1c-1.1-0.1-2.3-0.1-3.4-0.2l-0.8,0l-0.8,0
			l-1.7,0c-1.1,0-2.3,0-3.4,0c-1.1,0-2.3,0-3.4,0l-1.7,0l-1.7,0c-2.3,0.1-4.5,0.2-6.8,0.3c-2.3,0.1-4.6,0.2-6.9,0.3
			c-2.3,0.1-4.6,0.2-6.9,0.2L71,38.6c-1.2,0-2.3,0-3.5,0c-2.3,0-4.6,0-6.9,0c-2.3,0-4.6,0-6.9-0.1c-4.6-0.1-9.2-0.3-13.8-0.6
			l-1.7-0.1l-1.7-0.1c-1.1-0.1-2.3-0.1-3.4-0.2c-1.2-0.1-2.4-0.2-3.6-0.4c-1.2-0.2-2.4-0.6-3.6-1.1l-3.2-1.4l3.1-1.3
			c0.8-0.4,1.6-0.6,2.5-0.9s1.7-0.6,2.5-0.8c1.7-0.5,3.3-1,5-1.4c0.4-0.1,0.8-0.2,1.3-0.3c0.4-0.1,0.8-0.2,1.3-0.3l1.3-0.2l1.3-0.2
			c0.4-0.1,0.9-0.1,1.3-0.1l0.6,0c0.2,0,0.4,0,0.6,0h0.6c0.2,0,0.4,0,0.6,0l1.3,0.1l-1.3,0.1c-0.2,0-0.4,0.1-0.6,0.1l-0.6,0.1
			c-0.2,0-0.4,0.1-0.6,0.1l-0.6,0.2C41.8,30,41.4,30,41,30.2c-1.7,0.4-3.2,1-4.8,1.6L35,32.2l-1.2,0.5c-0.8,0.3-1.6,0.7-2.3,1
			c-0.4,0.2-0.8,0.4-1.2,0.5c-0.4,0.2-0.8,0.4-1.1,0.6c-0.7,0.4-1.5,0.7-2.2,1.1l-0.1-2.6c0.9,0.3,2,0.5,3,0.6
			C30.9,34,32,34,33.1,34s2.3,0,3.4,0l3.4,0c2.3,0,4.6,0,6.9,0l6.9-0.1l13.8-0.2l6.9-0.1l6.9-0.2c2.3,0,4.6-0.1,6.9-0.1
			c2.3,0,4.6,0,7,0c2.3,0,4.6,0.1,7,0.3c0.6,0,1.2,0.1,1.7,0.1c0.6,0,1.2,0.1,1.7,0.1l1.7,0.2l0.9,0.1l0.9,0.1
			c4.6,0.6,9.2,1.4,13.7,2.7c3.7,1.1,7.3,2.5,10.7,4.3c0.3,0.2,0.7,0.3,1,0.5C134.7,41.9,135,42.1,135.2,42.2z"/>
	</g>
</g>
</svg>
