<?xml version="1.0" encoding="UTF-8"?>
<svg width="16px" height="16px" viewBox="0 0 16 16" version="1.1" xmlns="http://www.w3.org/2000/svg" xmlns:xlink="http://www.w3.org/1999/xlink">
    <!-- Generator: Sketch 49.3 (51167) - http://www.bohemiancoding.com/sketch -->
    <title>search</title>
    <desc>Created with Sketch.</desc>
    <defs></defs>
    <g id="search" stroke="none" stroke-width="1" fill="none" fill-rule="evenodd">
        <g id="ico-search" fill="#000000" fill-rule="nonzero">
            <path d="M9,10 C11.209139,10 13,8.209139 13,6 C13,3.790861 11.209139,2 9,2 C6.790861,2 5,3.790861 5,6 C5,8.209139 6.790861,10 9,10 Z M6.13896649,11.2752471 L1.5,15.9142136 L0.085786438,14.5 L4.5552792,10.0305072 C3.58886338,8.9654152 3,7.55147581 3,6 C3,2.6862915 5.6862915,0 9,0 C12.3137085,0 15,2.6862915 15,6 C15,9.3137085 12.3137085,12 9,12 C7.9640287,12 6.98938036,11.7374452 6.13896649,11.2752471 Z" id="Combined-Shape"></path>
        </g>
    </g>
</svg>